# xmcd
#
# Track frame offsets:
#	150
#	14986
#	26061
#	36339
#	47557
#	56897
#	70363
#	82427
#	91716
#	102504
#	116523
#	128658
#
# Disc length: 1924 seconds
#
# Revision: 0
# Processed by: cddbd v1.5.1PL0 Copyright (c) Steve Scherf et al.
# Submitted via: dBpowerAMP V4.0
#
DISCID=ae07820c
DTITLE=Don Williams With Pozo Seco - Spend Some Time With Me (Little Darlin')
DYEAR=2005
DGENRE=Country
TTITLE0=Strawberry Fields - Something
TTITLE1=Spend Some Time With Me
TTITLE2=Take My Hand For Awhile
TTITLE3=Storybook Children
TTITLE4=In My Life
TTITLE5=Ruby Tuesday
TTITLE6=Comin' Apart
TTITLE7=Apt. No. 9
TTITLE8=Always Something There To Remind Me
TTITLE9=There's No Angle On My Shoulder
TTITLE10=Follow Me Back To Louisville
TTITLE11=Tears
EXTD=
EXTT0=
EXTT1=
EXTT2=
EXTT3=
EXTT4=
EXTT5=
EXTT6=
EXTT7=
EXTT8=
EXTT9=
EXTT10=
EXTT11=
PLAYORDER=
